<?xml version="1.0" encoding="utf-8"?>
<!-- Generator: Adobe Illustrator 24.3.0, SVG Export Plug-In . SVG Version: 6.00 Build 0)  -->
<svg version="1.1" id="Layer_1" xmlns="http://www.w3.org/2000/svg" xmlns:xlink="http://www.w3.org/1999/xlink" x="0px" y="0px"
	 viewBox="0 0 500 500" style="enable-background:new 0 0 500 500;" xml:space="preserve">
<style type="text/css">
	.st0{fill:#0984E3;}
	.st1{fill:#74B9FF;}
</style>
<g>
	<path class="st0" d="M365.43,124.91c-0.36,2.48-2.34,4.9-5.5,7.56c-13.15,11.14-29.43,18.23-46.34,21.09
		c-12.84,2.15-26.13,1.9-38.86-0.88c-23.93-5.23-43.4-17.3-68.89-16.94c-23.16,0.33-46.31,7.56-64.93,21.45
		c-46.01,34.29-56.6,98.04-26.81,146.25c14.03,22.69,33.28,32.89,54.18,47.41c-23.1,17.74-66.58,21.59-94.71,17.05
		c-4.15-0.69-11.91-1.81-19-3.85c-2.7-0.8-5.28-1.71-7.56-2.81c-2.89-1.38-5.25-3-6.6-4.95C10.68,313.07-0.9,259.8,9.69,208.1
		c4.48-21.84,12.79-42.85,24.23-61.99c12.98-21.73,29.89-41.03,49.8-56.68c37.65-29.65,85.55-45.6,133.52-43.26
		c57.42,2.81,103.27,32.64,144.32,70.92c0.93,0.85,1.68,1.68,2.28,2.5c0.19,0.27,0.36,0.52,0.52,0.77
		C365.35,121.97,365.68,123.45,365.43,124.91z"/>
	<path class="st1" d="M45.9,367.3c2.76,3.79,12.77,6.26,16.83,7.79c15.37,5.8,31.78,9.21,48.17,10.23
		c37.39,2.33,77.76-6.13,109.9-25.66c32.71-19.87,57.2-50.5,90.96-68.93c28.17-15.39,55.2-27.46,88.22-22.52
		c38.12,5.7,71.05,33.9,94.19,63.34c-2.99-3.81-18.29-4.53-22.55-5.18c-13.17-1.99-25.18-1.73-38.29,1.32
		c-26.96,6.27-51.36,20.91-73.15,37.56c-28.53,21.8-53.99,47.56-84.25,67.09c-28.06,18.1-63.67,24.23-96.63,20.8
		C123.6,447.33,78.02,411.31,45.9,367.3z"/>
</g>
</svg>
